<svg width="17" height="16" viewBox="0 0 17 16" fill="none" xmlns="http://www.w3.org/2000/svg">
<path d="M15.6923 0H1.30769C0.960871 0 0.628254 0.153246 0.383014 0.426026C0.137774 0.698807 0 1.06878 0 1.45455V14.5455C0 14.9312 0.137774 15.3012 0.383014 15.574C0.628254 15.8468 0.960871 16 1.30769 16H15.6923C16.0391 16 16.3717 15.8468 16.617 15.574C16.8622 15.3012 17 14.9312 17 14.5455V1.45455C17 1.06878 16.8622 0.698807 16.617 0.426026C16.3717 0.153246 16.0391 0 15.6923 0ZM14.8472 4.15091L7.00106 12.8782C6.94033 12.9458 6.86822 12.9994 6.78885 13.036C6.70947 13.0726 6.62439 13.0915 6.53846 13.0915C6.45254 13.0915 6.36745 13.0726 6.28808 13.036C6.2087 12.9994 6.13659 12.9458 6.07586 12.8782L2.80663 9.24182C2.68395 9.10535 2.61502 8.92027 2.61502 8.72727C2.61502 8.53428 2.68395 8.34919 2.80663 8.21273C2.92932 8.07626 3.09572 7.9996 3.26923 7.9996C3.44274 7.9996 3.60914 8.07626 3.73183 8.21273L6.53846 11.3355L13.922 3.12182C14.0447 2.98535 14.2111 2.90869 14.3846 2.90869C14.5581 2.90869 14.7245 2.98535 14.8472 3.12182C14.9699 3.25828 15.0388 3.44337 15.0388 3.63636C15.0388 3.82936 14.9699 4.01444 14.8472 4.15091Z" fill="#D85431"/>
</svg>
