<svg width="16" height="16" viewBox="0 0 16 16" fill="none" xmlns="http://www.w3.org/2000/svg">
<g clip-path="url(#clip0_1_37)">
<path d="M8.16302 3.46738C8.1194 3.42565 8.06137 3.40237 8.00101 3.40237C7.94065 3.40237 7.88261 3.42565 7.83899 3.46738L2.44544 8.61982C2.42254 8.64173 2.40431 8.66806 2.39188 8.69722C2.37944 8.72637 2.37304 8.75775 2.37308 8.78945L2.3722 13.6252C2.3722 13.8738 2.47097 14.1123 2.64679 14.2881C2.8226 14.4639 3.06106 14.5627 3.3097 14.5627H6.12513C6.24945 14.5627 6.36868 14.5133 6.45658 14.4254C6.54449 14.3375 6.59388 14.2183 6.59388 14.0939V10.1096C6.59388 10.0474 6.61857 9.98779 6.66252 9.94384C6.70648 9.89988 6.76609 9.87519 6.82825 9.87519H9.172C9.23416 9.87519 9.29378 9.89988 9.33773 9.94384C9.38168 9.98779 9.40638 10.0474 9.40638 10.1096V14.0939C9.40638 14.2183 9.45576 14.3375 9.54367 14.4254C9.63158 14.5133 9.75081 14.5627 9.87513 14.5627H12.6894C12.938 14.5627 13.1765 14.4639 13.3523 14.2881C13.5281 14.1123 13.6269 13.8738 13.6269 13.6252V8.78945C13.6269 8.75775 13.6205 8.72637 13.6081 8.69722C13.5956 8.66806 13.5774 8.64173 13.5545 8.61982L8.16302 3.46738Z" fill="#A0AEC0"/>
<path d="M14.8826 7.65358L12.6912 5.55709V2.37575C12.6912 2.25143 12.6418 2.1322 12.5539 2.04429C12.466 1.95638 12.3468 1.907 12.2225 1.907H10.8162C10.6919 1.907 10.5727 1.95638 10.4847 2.04429C10.3968 2.1322 10.3475 2.25143 10.3475 2.37575V3.31325L8.65058 1.69079C8.49179 1.53024 8.25566 1.43825 8.00048 1.43825C7.74618 1.43825 7.51064 1.53024 7.35185 1.69108L1.12041 7.65299C0.938179 7.82877 0.915328 8.11793 1.08115 8.30836C1.12279 8.35643 1.17377 8.39552 1.231 8.42326C1.28823 8.451 1.3505 8.4668 1.41403 8.4697C1.47756 8.47261 1.54102 8.46256 1.60054 8.44016C1.66006 8.41776 1.7144 8.38348 1.76025 8.33942L7.83935 2.53044C7.88297 2.48871 7.941 2.46542 8.00136 2.46542C8.06172 2.46542 8.11975 2.48871 8.16337 2.53044L14.2431 8.33942C14.3326 8.4253 14.4526 8.47217 14.5766 8.46976C14.7007 8.46734 14.8187 8.41583 14.9049 8.32653C15.0848 8.1402 15.0698 7.83258 14.8826 7.65358Z" fill="#A0AEC0"/>
</g>
<defs>
<clipPath id="clip0_1_37">
<rect width="15" height="15" fill="white" transform="translate(0.500122 0.499878)"/>
</clipPath>
</defs>
</svg>
