<svg width="14" height="15" viewBox="0 0 14 15" fill="none" xmlns="http://www.w3.org/2000/svg">
<path d="M2.125 2.25024H6.625C7.0375 2.25024 7.375 1.91274 7.375 1.50024C7.375 1.08774 7.0375 0.750244 6.625 0.750244H2.125C1.3 0.750244 0.625 1.42524 0.625 2.25024V12.7502C0.625 13.5752 1.3 14.2502 2.125 14.2502H6.625C7.0375 14.2502 7.375 13.9127 7.375 13.5002C7.375 13.0877 7.0375 12.7502 6.625 12.7502H2.125V2.25024Z" fill="#D85431"/>
<path d="M13.8625 7.23765L11.77 5.14515C11.7178 5.09157 11.6509 5.05476 11.5777 5.03945C11.5045 5.02414 11.4284 5.03102 11.3591 5.05921C11.2898 5.0874 11.2306 5.13562 11.1889 5.19769C11.1472 5.25976 11.1249 5.33287 11.125 5.40765V6.75015H5.875C5.4625 6.75015 5.125 7.08765 5.125 7.50015C5.125 7.91265 5.4625 8.25015 5.875 8.25015H11.125V9.59265C11.125 9.93015 11.53 10.0952 11.7625 9.85515L13.855 7.76265C14.005 7.62015 14.005 7.38015 13.8625 7.23765Z" fill="#D85431"/>
</svg>
