<svg width="78" height="63" viewBox="0 0 78 63" fill="none" xmlns="http://www.w3.org/2000/svg">
<path d="M3.129 59.501C3.39033 59.5477 3.612 59.6853 3.794 59.914C3.976 60.1427 4.067 60.4017 4.067 60.691C4.067 60.9383 4.00167 61.1623 3.871 61.363C3.745 61.559 3.56067 61.7153 3.318 61.832C3.07533 61.944 2.793 62 2.471 62H0.525V57.135H2.38C2.71133 57.135 2.996 57.191 3.234 57.303C3.472 57.415 3.65167 57.5667 3.773 57.758C3.89433 57.9447 3.955 58.1547 3.955 58.388C3.955 58.668 3.88033 58.9013 3.731 59.088C3.58167 59.2747 3.381 59.4123 3.129 59.501ZM1.323 59.179H2.31C2.57133 59.179 2.77433 59.1207 2.919 59.004C3.06833 58.8827 3.143 58.71 3.143 58.486C3.143 58.2667 3.06833 58.0963 2.919 57.975C2.77433 57.849 2.57133 57.786 2.31 57.786H1.323V59.179ZM2.401 61.349C2.67167 61.349 2.884 61.2837 3.038 61.153C3.192 61.0223 3.269 60.8403 3.269 60.607C3.269 60.369 3.18733 60.18 3.024 60.04C2.86067 59.9 2.64367 59.83 2.373 59.83H1.323V61.349H2.401ZM13.0402 57.632C12.8955 57.632 12.7742 57.583 12.6762 57.485C12.5782 57.387 12.5292 57.2657 12.5292 57.121C12.5292 56.9763 12.5782 56.855 12.6762 56.757C12.7742 56.659 12.8955 56.61 13.0402 56.61C13.1802 56.61 13.2992 56.659 13.3972 56.757C13.4952 56.855 13.5442 56.9763 13.5442 57.121C13.5442 57.2657 13.4952 57.387 13.3972 57.485C13.2992 57.583 13.1802 57.632 13.0402 57.632ZM13.4322 58.143V62H12.6342V58.143H13.4322ZM22.9779 56.82V62H22.1799V56.82H22.9779ZM32.5236 56.82V62H31.7256V56.82H32.5236ZM43.9523 62L42.0693 59.823V62H41.2713V57.135H42.0693V59.354L43.9593 57.135H44.9603L42.8463 59.571L44.9953 62H43.9523ZM53.807 57.632C53.6623 57.632 53.541 57.583 53.443 57.485C53.345 57.387 53.296 57.2657 53.296 57.121C53.296 56.9763 53.345 56.855 53.443 56.757C53.541 56.659 53.6623 56.61 53.807 56.61C53.947 56.61 54.066 56.659 54.164 56.757C54.262 56.855 54.311 56.9763 54.311 57.121C54.311 57.2657 54.262 57.387 54.164 57.485C54.066 57.583 53.947 57.632 53.807 57.632ZM54.199 58.143V62H53.401V58.143H54.199ZM63.7447 56.82V62H62.9467V56.82H63.7447ZM73.2904 56.82V62H72.4924V56.82H73.2904Z" fill="black"/>
<path fill-rule="evenodd" clip-rule="evenodd" d="M61.9881 9.26357H55.0411L44.1879 23.3346L45.0355 31.302L45.7135 30.4206L58.2972 46.8416H65.6614L48.9431 26.2221L61.9881 9.26357Z" fill="#DA2E00"/>
<path fill-rule="evenodd" clip-rule="evenodd" d="M15.328 0H10.0001V29.2757C10 29.2917 10 29.3077 10 29.3238C10 38.9985 17.843 46.8415 27.5177 46.8415C37.1925 46.8415 45.0355 38.9985 45.0355 29.3238C45.0355 19.649 37.1925 11.806 27.5177 11.806C22.7799 11.806 18.4813 13.6869 15.328 16.7427V0ZM27.5177 40.7155C21.2262 40.7155 16.126 35.6153 16.126 29.3238C16.126 23.0323 21.2262 17.932 27.5177 17.932C33.8092 17.932 38.9095 23.0323 38.9095 29.3238C38.9095 35.6153 33.8092 40.7155 27.5177 40.7155Z" fill="#FEE800"/>
</svg>
