<svg width="173" height="185" viewBox="0 0 173 185" fill="none" xmlns="http://www.w3.org/2000/svg">
<path d="M9.152 173.288C9.74933 173.395 10.256 173.709 10.672 174.232C11.088 174.755 11.296 175.347 11.296 176.008C11.296 176.573 11.1467 177.085 10.848 177.544C10.56 177.992 10.1387 178.349 9.584 178.616C9.02933 178.872 8.384 179 7.648 179H3.2V167.88H7.44C8.19733 167.88 8.848 168.008 9.392 168.264C9.936 168.52 10.3467 168.867 10.624 169.304C10.9013 169.731 11.04 170.211 11.04 170.744C11.04 171.384 10.8693 171.917 10.528 172.344C10.1867 172.771 9.728 173.085 9.152 173.288ZM5.024 172.552H7.28C7.87733 172.552 8.34133 172.419 8.672 172.152C9.01333 171.875 9.184 171.48 9.184 170.968C9.184 170.467 9.01333 170.077 8.672 169.8C8.34133 169.512 7.87733 169.368 7.28 169.368H5.024V172.552ZM7.488 177.512C8.10667 177.512 8.592 177.363 8.944 177.064C9.296 176.765 9.472 176.349 9.472 175.816C9.472 175.272 9.28533 174.84 8.912 174.52C8.53867 174.2 8.04267 174.04 7.424 174.04H5.024V177.512H7.488ZM31.8061 169.016C31.4755 169.016 31.1981 168.904 30.9741 168.68C30.7501 168.456 30.6381 168.179 30.6381 167.848C30.6381 167.517 30.7501 167.24 30.9741 167.016C31.1981 166.792 31.4755 166.68 31.8061 166.68C32.1261 166.68 32.3981 166.792 32.6221 167.016C32.8461 167.24 32.9581 167.517 32.9581 167.848C32.9581 168.179 32.8461 168.456 32.6221 168.68C32.3981 168.904 32.1261 169.016 31.8061 169.016ZM32.7021 170.184V179H30.8781V170.184H32.7021ZM54.5209 167.16V179H52.6969V167.16H54.5209ZM76.3396 167.16V179H74.5156V167.16H76.3396ZM102.462 179L98.1584 174.024V179H96.3344V167.88H98.1584V172.952L102.478 167.88H104.766L99.9344 173.448L104.846 179H102.462ZM124.987 169.016C124.657 169.016 124.379 168.904 124.155 168.68C123.931 168.456 123.819 168.179 123.819 167.848C123.819 167.517 123.931 167.24 124.155 167.016C124.379 166.792 124.657 166.68 124.987 166.68C125.307 166.68 125.579 166.792 125.803 167.016C126.027 167.24 126.139 167.517 126.139 167.848C126.139 168.179 126.027 168.456 125.803 168.68C125.579 168.904 125.307 169.016 124.987 169.016ZM125.883 170.184V179H124.059V170.184H125.883ZM147.702 167.16V179H145.878V167.16H147.702ZM169.521 167.16V179H167.697V167.16H169.521Z" fill="black"/>
<path fill-rule="evenodd" clip-rule="evenodd" d="M161.107 28.707H139.579L105.945 72.312L108.572 97.0023L110.673 94.271L149.669 145.158H172.49L120.681 81.2601L161.107 28.707Z" fill="#DA2E00"/>
<path fill-rule="evenodd" clip-rule="evenodd" d="M16.511 0H1.01684e-05V90.8102C-1.27105e-05 90.8308 1.01684e-05 90.8513 1.01684e-05 90.8719C1.01684e-05 120.853 24.3047 145.158 54.286 145.158C84.2673 145.158 108.572 120.853 108.572 90.8719C108.572 60.8906 84.2673 36.5859 54.286 36.5859C39.6037 36.5859 26.2828 42.4147 16.511 51.8845V0ZM54.286 126.174C34.7892 126.174 18.9839 110.369 18.9839 90.8719C18.9839 71.3751 34.7892 55.5698 54.286 55.5698C73.7828 55.5698 89.5881 71.3751 89.5881 90.8719C89.5881 110.369 73.7828 126.174 54.286 126.174Z" fill="#FEE800"/>
</svg>
