<svg width="19" height="13" viewBox="0 0 19 13" fill="none" xmlns="http://www.w3.org/2000/svg">
<path d="M9.375 3.37524C8.75693 3.37524 8.15275 3.55852 7.63884 3.9019C7.12494 4.24528 6.7244 4.73334 6.48788 5.30436C6.25135 5.87538 6.18947 6.50371 6.31005 7.1099C6.43062 7.71609 6.72825 8.27291 7.16529 8.70995C7.60233 9.14699 8.15915 9.44462 8.76534 9.5652C9.37153 9.68578 9.99987 9.62389 10.5709 9.38737C11.1419 9.15084 11.63 8.7503 11.9733 8.2364C12.3167 7.7225 12.5 7.11831 12.5 6.50024C12.5 5.67144 12.1708 4.87659 11.5847 4.29054C10.9987 3.70448 10.2038 3.37524 9.375 3.37524ZM9.375 8.37524C9.00416 8.37524 8.64165 8.26528 8.33331 8.05925C8.02496 7.85322 7.78464 7.56039 7.64273 7.21778C7.50081 6.87516 7.46368 6.49816 7.53603 6.13445C7.60837 5.77074 7.78695 5.43664 8.04917 5.17442C8.3114 4.9122 8.64549 4.73362 9.00921 4.66127C9.37292 4.58892 9.74992 4.62606 10.0925 4.76797C10.4351 4.90988 10.728 5.15021 10.934 5.45855C11.14 5.76689 11.25 6.1294 11.25 6.50024C11.25 6.99753 11.0525 7.47444 10.7008 7.82607C10.3492 8.1777 9.87228 8.37524 9.375 8.37524ZM18.125 0.875244H0.625C0.45924 0.875244 0.300268 0.941092 0.183058 1.0583C0.065848 1.17551 0 1.33448 0 1.50024V11.5002C0 11.666 0.065848 11.825 0.183058 11.9422C0.300268 12.0594 0.45924 12.1252 0.625 12.1252H18.125C18.2908 12.1252 18.4497 12.0594 18.5669 11.9422C18.6842 11.825 18.75 11.666 18.75 11.5002V1.50024C18.75 1.33448 18.6842 1.17551 18.5669 1.0583C18.4497 0.941092 18.2908 0.875244 18.125 0.875244ZM14.5039 10.8752H4.24609C4.03625 10.1656 3.65219 9.51965 3.12889 8.99635C2.60559 8.47305 1.95968 8.08899 1.25 7.87915V5.12134C1.95968 4.9115 2.60559 4.52744 3.12889 4.00414C3.65219 3.48084 4.03625 2.83493 4.24609 2.12524H14.5039C14.7137 2.83493 15.0978 3.48084 15.6211 4.00414C16.1444 4.52744 16.7903 4.9115 17.5 5.12134V7.87915C16.7903 8.08899 16.1444 8.47305 15.6211 8.99635C15.0978 9.51965 14.7137 10.1656 14.5039 10.8752ZM17.5 3.79478C16.7503 3.47243 16.1528 2.8749 15.8305 2.12524H17.5V3.79478ZM2.91953 2.12524C2.59718 2.8749 1.99966 3.47243 1.25 3.79478V2.12524H2.91953ZM1.25 9.20571C1.99966 9.52806 2.59718 10.1256 2.91953 10.8752H1.25V9.20571ZM15.8305 10.8752C16.1528 10.1256 16.7503 9.52806 17.5 9.20571V10.8752H15.8305Z" fill="#A0AEC0"/>
</svg>
