<svg width="13" height="15" viewBox="0 0 13 15" fill="none" xmlns="http://www.w3.org/2000/svg">
<path d="M11.5312 14.0618H1.21867C1.08369 14.0635 0.950017 14.0352 0.827374 13.9788C0.70473 13.9224 0.596203 13.8393 0.509689 13.7357C0.319259 13.5081 0.242502 13.1972 0.299337 12.8829C0.546603 11.5112 1.31828 10.3589 2.53117 9.55005C3.60871 8.83198 4.97365 8.43677 6.37492 8.43677C7.77619 8.43677 9.14113 8.83228 10.2187 9.55005C11.4316 10.3586 12.2032 11.5109 12.4505 12.8826C12.5073 13.1969 12.4306 13.5078 12.2402 13.7354C12.1537 13.8391 12.0452 13.9222 11.9225 13.9786C11.7999 14.0351 11.6662 14.0635 11.5312 14.0618Z" fill="#A0AEC0"/>
<path d="M8.62034 1.89199C8.05022 1.27646 7.25393 0.9375 6.37503 0.9375C5.49143 0.9375 4.69251 1.27441 4.12503 1.88613C3.5514 2.50459 3.2719 3.34512 3.33753 4.25273C3.46761 6.04336 4.8302 7.5 6.37503 7.5C7.91985 7.5 9.2801 6.04365 9.41223 4.25332C9.47874 3.35391 9.19749 2.51514 8.62034 1.89199Z" fill="#A0AEC0"/>
</svg>
