<svg width="13" height="16" viewBox="0 0 13 16" fill="none" xmlns="http://www.w3.org/2000/svg">
<g id="Group">
<path id="Vector" d="M8.125 10.375H4.375M6.25 12.25V8.5" stroke="black" stroke-opacity="0.7" stroke-width="1.2" stroke-linecap="round" stroke-linejoin="round"/>
<path id="Vector_2" d="M1 13.75V1.75C1 1.55109 1.07902 1.36032 1.21967 1.21967C1.36032 1.07902 1.55109 1 1.75 1H6.379C6.77679 1.00008 7.15826 1.15818 7.4395 1.4395L11.0605 5.0605C11.3418 5.34174 11.4999 5.72321 11.5 6.121V13.75C11.5 13.9489 11.421 14.1397 11.2803 14.2803C11.1397 14.421 10.9489 14.5 10.75 14.5H1.75C1.55109 14.5 1.36032 14.421 1.21967 14.2803C1.07902 14.1397 1 13.9489 1 13.75Z" stroke="black" stroke-opacity="0.7" stroke-width="1.2" stroke-linejoin="round"/>
<path id="Vector_3" d="M6.25 1V5.5C6.25 5.69891 6.32902 5.88968 6.46967 6.03033C6.61032 6.17098 6.80109 6.25 7 6.25H11.5" stroke="black" stroke-opacity="0.7" stroke-width="1.2" stroke-linejoin="round"/>
</g>
</svg>
