<svg width="22" height="22" viewBox="0 0 22 22" fill="none" xmlns="http://www.w3.org/2000/svg">
<path id="Vector" d="M8.64286 22V19.0536C8.64286 18.5114 9.08286 18.0714 9.625 18.0714H12.375C12.9171 18.0714 13.365 18.5114 13.365 19.0614V22H22V5.73571C22 5.4984 21.9533 5.2634 21.8624 5.04415C21.7716 4.8249 21.6385 4.62568 21.4707 4.45787C21.3029 4.29006 21.1037 4.15695 20.8844 4.06613C20.6652 3.97531 20.4302 3.92857 20.1929 3.92857H18.8571V1.93286C18.8571 0.864286 17.9929 0 16.9243 0H5.07571C4.00714 0 3.14286 0.864286 3.14286 1.93286V3.92857H1.80714C1.56983 3.92857 1.33483 3.97531 1.11558 4.06613C0.896327 4.15695 0.697109 4.29006 0.5293 4.45787C0.361491 4.62568 0.228378 4.8249 0.13756 5.04415C0.046743 5.2634 0 5.4984 0 5.73571V22H8.64286ZM3.14286 17.2857H2.35714C1.925 17.2857 1.57143 16.9321 1.57143 16.5V15.7143C1.57143 15.2821 1.925 14.9286 2.35714 14.9286H3.14286V17.2857ZM3.14286 13.3571H2.35714C1.925 13.3571 1.57143 13.0036 1.57143 12.5714V11.7857C1.57143 11.3536 1.925 11 2.35714 11H3.14286V13.3571ZM3.14286 9.42857H2.35714C1.925 9.42857 1.57143 9.075 1.57143 8.64286V7.85714C1.57143 7.425 1.925 7.07143 2.35714 7.07143H3.14286V9.42857ZM18.8571 7.07143H19.6429C20.075 7.07143 20.4286 7.425 20.4286 7.85714V8.64286C20.4286 9.08286 20.075 9.42857 19.6429 9.42857H18.8571V7.07143ZM18.8571 11H19.6429C20.075 11 20.4286 11.3536 20.4286 11.7857V12.5714C20.4286 13.0114 20.075 13.3571 19.6429 13.3571H18.8571V11ZM18.8571 14.9286H19.6429C20.075 14.9286 20.4286 15.2821 20.4286 15.7143V16.5C20.4286 16.94 20.075 17.2857 19.6429 17.2857H18.8571V14.9286ZM7.46429 12.5714C7.25214 12.5714 7.07143 12.3986 7.07143 12.1786V10.5993C7.07143 10.3871 7.24429 10.2064 7.46429 10.2064H9.82929C10.0414 10.2064 10.2221 10.3793 10.2221 10.5993V12.1786C10.2201 12.2835 10.177 12.3834 10.102 12.4569C10.0271 12.5303 9.92636 12.5714 9.82143 12.5714H7.46429ZM14.9286 10.6071V12.1864C14.9286 12.3986 14.7557 12.5714 14.5436 12.5793H12.1786C11.9586 12.5793 11.7857 12.3986 11.7857 12.1864V10.6071C11.7857 10.3871 11.9664 10.2143 12.1786 10.2143H14.5357C14.7557 10.2143 14.9286 10.395 14.9286 10.6071ZM10.2143 14.5357V16.115C10.2143 16.3271 10.0414 16.5 9.82929 16.5079H7.46429C7.24429 16.5079 7.07143 16.3271 7.07143 16.115V14.5357C7.07143 14.3157 7.25214 14.1429 7.46429 14.1429H9.82143C10.0414 14.1429 10.2143 14.3236 10.2143 14.5357ZM14.9286 14.5357V16.115C14.9286 16.3271 14.7557 16.5 14.5436 16.5079H12.1786C11.9586 16.5079 11.7857 16.3271 11.7857 16.115V14.5357C11.7857 14.3157 11.9664 14.1429 12.1786 14.1429H14.5357C14.7557 14.1429 14.9286 14.3236 14.9286 14.5357ZM10.2143 2.75V4.32929C10.2143 4.54143 10.0414 4.71429 9.82929 4.72214H7.46429C7.24429 4.72214 7.07143 4.54143 7.07143 4.32929V2.75C7.07143 2.53 7.25214 2.35714 7.46429 2.35714H9.82143C10.0414 2.35714 10.2143 2.53786 10.2143 2.75ZM14.9286 2.75V4.32929C14.9286 4.54143 14.7557 4.71429 14.5436 4.72214H12.1786C11.9586 4.72214 11.7857 4.54143 11.7857 4.32929V2.75C11.7857 2.53 11.9664 2.35714 12.1786 2.35714H14.5357C14.7557 2.35714 14.9286 2.53786 14.9286 2.75ZM10.2143 6.67857V8.25786C10.2143 8.47 10.0414 8.64286 9.82929 8.65071H7.46429C7.24429 8.65071 7.07143 8.47 7.07143 8.25786V6.67857C7.07143 6.45857 7.25214 6.28571 7.46429 6.28571H9.82143C10.0414 6.28571 10.2143 6.46643 10.2143 6.67857ZM14.9286 6.67857V8.25786C14.9286 8.47 14.7557 8.64286 14.5436 8.65071H12.1786C11.9586 8.65071 11.7857 8.47 11.7857 8.25786V6.67857C11.7857 6.45857 11.9664 6.28571 12.1786 6.28571H14.5357C14.7557 6.28571 14.9286 6.46643 14.9286 6.67857Z" fill="white"/>
</svg>
