<svg width="18" height="18" viewBox="0 0 18 18" fill="none" xmlns="http://www.w3.org/2000/svg">
<g id="icons8:services">
<path id="Vector" d="M12.0938 1.40625V2.19712C11.6326 2.27632 11.1946 2.4565 10.8113 2.72475L10.2308 2.17913L9.45732 3.006L10.0198 3.53306C9.76248 3.90808 9.58851 4.33389 9.50963 4.78181H8.71876V5.90681H9.50963C9.59176 6.37369 9.77626 6.79894 10.0373 7.17244L9.43932 7.75181L10.2493 8.56181L10.8287 7.96331C11.2022 8.22431 11.6274 8.40881 12.0943 8.49094V9.28125H13.2193V8.49038C13.6672 8.41168 14.093 8.2379 14.4681 7.98075L14.9946 8.54325L15.8214 7.76925L15.2758 7.18987C15.5402 6.813 15.7202 6.37706 15.8034 5.90625H16.5938V4.78125H15.8029C15.7219 4.3258 15.5418 3.89372 15.2753 3.51562L15.8029 2.988L15.0114 2.19712L14.4844 2.72475C14.1063 2.45822 13.6742 2.27809 13.2188 2.19712V1.40625H12.0938ZM12.6563 3.26981C12.9291 3.26802 13.1997 3.32044 13.4521 3.42402C13.7046 3.5276 13.934 3.68029 14.1269 3.87322C14.3199 4.06616 14.4727 4.29549 14.5763 4.54793C14.68 4.80036 14.7325 5.07087 14.7308 5.34375C14.7308 6.49969 13.8122 7.41825 12.6563 7.41825C11.5003 7.41825 10.5818 6.49969 10.5818 5.34375C10.5818 4.18781 11.5003 3.26925 12.6563 3.26925V3.26981ZM5.36063 6.59138L4.32451 7.01325L4.72838 8.03137C4.19076 8.3531 3.73851 8.79956 3.40988 9.333L2.40863 8.928L1.98676 9.96581L2.98801 10.3697C2.90898 10.674 2.8678 10.9868 2.86538 11.3012C2.86538 11.6218 2.91319 11.9346 2.98801 12.2327L1.98676 12.6377L2.40863 13.6744L3.40988 13.2694C3.73551 13.8098 4.1881 14.2626 4.72838 14.5884L4.32338 15.5897L5.36119 16.0116L5.76619 15.0103C6.07043 15.0895 6.38332 15.1307 6.69769 15.1329C7.01832 15.1329 7.33219 15.0851 7.62919 15.0103L8.03419 16.0116L9.07088 15.5897L8.66588 14.5884C9.19969 14.2603 9.64625 13.8079 9.96751 13.2699L10.9856 13.6738L11.4075 12.6371L10.3894 12.2321C10.4625 11.934 10.512 11.6207 10.512 11.3006C10.512 10.98 10.4631 10.6661 10.3883 10.3686L11.4081 9.96469L10.9862 8.92688L9.96807 9.33187C9.64497 8.79981 9.19851 8.35335 8.66644 8.03025L9.07144 7.01213L8.03363 6.59025L7.63032 7.60838C7.32577 7.52986 7.01276 7.48886 6.69826 7.48631C6.37763 7.48631 6.06488 7.53469 5.76676 7.60894L5.36176 6.59081L5.36063 6.59138ZM6.69713 8.61188C8.19507 8.61188 9.38588 9.80437 9.38588 11.3017C9.38701 12.7997 8.19507 14.0085 6.69713 14.0085C6.34155 14.0089 5.98938 13.9392 5.66078 13.8034C5.33218 13.6675 5.03361 13.4681 4.78218 13.2167C4.53075 12.9653 4.33138 12.6667 4.19551 12.3381C4.05965 12.0095 3.98994 11.6573 3.99038 11.3017C3.99038 9.80381 5.19976 8.61188 6.69713 8.61188Z" fill="#666666"/>
</g>
</svg>
