<svg width="27" height="30" viewBox="0 0 27 30" fill="none" xmlns="http://www.w3.org/2000/svg">
<g id="uil:money-insert">
<path id="Vector" d="M11.7675 22.5L12.375 23.2375V18.75C12.375 18.4185 12.4935 18.1005 12.7045 17.8661C12.9155 17.6317 13.2016 17.5 13.5 17.5C13.7984 17.5 14.0845 17.6317 14.2955 17.8661C14.5065 18.1005 14.625 18.4185 14.625 18.75V23.2375L15.2325 22.55C15.3346 22.4219 15.4593 22.3184 15.5989 22.246C15.7385 22.1736 15.89 22.1338 16.044 22.1291C16.198 22.1244 16.3512 22.1549 16.4941 22.2187C16.6371 22.2825 16.7667 22.3783 16.875 22.5C16.9804 22.6162 17.0641 22.7545 17.1213 22.9068C17.1784 23.0591 17.2078 23.2225 17.2078 23.3875C17.2078 23.5525 17.1784 23.7159 17.1213 23.8682C17.0641 24.0206 16.9804 24.1588 16.875 24.275L14.2987 27.1375C14.1918 27.2513 14.0656 27.3405 13.9275 27.4C13.6536 27.525 13.3464 27.525 13.0725 27.4C12.9344 27.3405 12.8082 27.2513 12.7013 27.1375L10.125 24.325C9.90719 24.083 9.78483 23.7548 9.78483 23.4125C9.78483 23.0703 9.90719 22.742 10.125 22.5C10.3428 22.258 10.6382 22.122 10.9462 22.122C11.2543 22.122 11.5497 22.258 11.7675 22.5ZM13.5 15C12.8325 15 12.18 14.7801 11.625 14.368C11.0699 13.956 10.6374 13.3703 10.3819 12.6851C10.1265 11.9998 10.0596 11.2458 10.1898 10.5184C10.3201 9.79099 10.6415 9.1228 11.1135 8.59836C11.5855 8.07391 12.1869 7.71676 12.8416 7.57206C13.4963 7.42737 14.1749 7.50163 14.7916 7.78546C15.4083 8.06929 15.9354 8.54994 16.3062 9.16662C16.6771 9.7833 16.875 10.5083 16.875 11.25C16.875 12.2446 16.5194 13.1984 15.8865 13.9017C15.2536 14.6049 14.3951 15 13.5 15ZM13.5 10C13.2775 10 13.06 10.0733 12.875 10.2107C12.69 10.348 12.5458 10.5432 12.4606 10.7717C12.3755 11.0001 12.3532 11.2514 12.3966 11.4939C12.44 11.7363 12.5472 11.9591 12.7045 12.1339C12.8618 12.3087 13.0623 12.4278 13.2805 12.476C13.4988 12.5242 13.725 12.4995 13.9305 12.4049C14.1361 12.3102 14.3118 12.15 14.4354 11.9445C14.559 11.7389 14.625 11.4972 14.625 11.25C14.625 10.9185 14.5065 10.6005 14.2955 10.3661C14.0845 10.1317 13.7984 10 13.5 10ZM5.625 11.25C5.625 11.0028 5.69098 10.7611 5.8146 10.5555C5.93821 10.35 6.11391 10.1898 6.31948 10.0952C6.52505 10.0005 6.75125 9.97579 6.96948 10.024C7.18771 10.0723 7.38816 10.1913 7.5455 10.3661C7.70283 10.5409 7.80998 10.7637 7.85338 11.0061C7.89679 11.2486 7.87451 11.5 7.78936 11.7284C7.70422 11.9568 7.56002 12.152 7.37502 12.2893C7.19001 12.4267 6.9725 12.5 6.75 12.5C6.45163 12.5 6.16548 12.3683 5.9545 12.1339C5.74353 11.8995 5.625 11.5815 5.625 11.25ZM21.375 11.25C21.375 11.4972 21.309 11.7389 21.1854 11.9445C21.0618 12.15 20.8861 12.3102 20.6805 12.4049C20.475 12.4995 20.2488 12.5242 20.0305 12.476C19.8123 12.4278 19.6118 12.3087 19.4545 12.1339C19.2972 11.9591 19.19 11.7363 19.1466 11.4939C19.1032 11.2514 19.1255 11.0001 19.2106 10.7717C19.2958 10.5432 19.44 10.348 19.625 10.2107C19.81 10.0733 20.0275 10 20.25 10C20.5484 10 20.8345 10.1317 21.0455 10.3661C21.2565 10.6005 21.375 10.9185 21.375 11.25ZM22.5 20H18C17.7016 20 17.4155 19.8683 17.2045 19.6339C16.9935 19.3995 16.875 19.0815 16.875 18.75C16.875 18.4185 16.9935 18.1005 17.2045 17.8661C17.4155 17.6317 17.7016 17.5 18 17.5H22.5C22.7984 17.5 23.0845 17.3683 23.2955 17.1339C23.5065 16.8995 23.625 16.5815 23.625 16.25V6.25001C23.625 5.91849 23.5065 5.60054 23.2955 5.36612C23.0845 5.1317 22.7984 5.00001 22.5 5.00001H4.5C4.20163 5.00001 3.91548 5.1317 3.7045 5.36612C3.49353 5.60054 3.375 5.91849 3.375 6.25001V16.25C3.375 16.5815 3.49353 16.8995 3.7045 17.1339C3.91548 17.3683 4.20163 17.5 4.5 17.5H9C9.29837 17.5 9.58452 17.6317 9.7955 17.8661C10.0065 18.1005 10.125 18.4185 10.125 18.75C10.125 19.0815 10.0065 19.3995 9.7955 19.6339C9.58452 19.8683 9.29837 20 9 20H4.5C3.60489 20 2.74645 19.6049 2.11351 18.9017C1.48058 18.1984 1.125 17.2446 1.125 16.25V6.25001C1.125 5.25545 1.48058 4.30162 2.11351 3.59836C2.74645 2.89509 3.60489 2.50001 4.5 2.50001H22.5C23.3951 2.50001 24.2536 2.89509 24.8865 3.59836C25.5194 4.30162 25.875 5.25545 25.875 6.25001V16.25C25.875 17.2446 25.5194 18.1984 24.8865 18.9017C24.2536 19.6049 23.3951 20 22.5 20Z" fill="#2D3748"/>
</g>
</svg>
