<svg width="10" height="5" viewBox="0 0 10 5" fill="none" xmlns="http://www.w3.org/2000/svg">
<path id="Vector" d="M8.45365 0.172176C8.49777 0.130894 8.5496 0.0987076 8.60616 0.0774545C8.66273 0.0562014 8.72293 0.0462976 8.78332 0.0483091C8.84371 0.0503207 8.90312 0.064208 8.95815 0.0891779C9.01317 0.114148 9.06274 0.149711 9.10402 0.193838C9.14531 0.237965 9.17749 0.289791 9.19875 0.346357C9.22 0.402923 9.2299 0.463121 9.22789 0.523514C9.22588 0.583907 9.21199 0.643313 9.18702 0.69834C9.16205 0.753366 9.12649 0.802935 9.08236 0.844217L4.92256 4.73365C4.83674 4.81397 4.72343 4.85839 4.60589 4.85781C4.48835 4.85722 4.3755 4.81165 4.29049 4.73048L0.169435 0.799528C0.124762 0.758075 0.08877 0.708158 0.0635513 0.652677C0.0383318 0.597196 0.024389 0.537257 0.0225305 0.476342C0.020672 0.415427 0.0309356 0.35475 0.0527256 0.297835C0.0745157 0.240919 0.107396 0.188901 0.14946 0.144801C0.191524 0.100702 0.241929 0.0653992 0.297752 0.0409448C0.353574 0.0164904 0.413699 0.0033716 0.474634 0.00235018C0.535569 0.00132875 0.596099 0.012425 0.65271 0.0349947C0.70932 0.0575644 0.760881 0.0911576 0.804399 0.133823L4.57654 3.22889L8.45365 0.172176Z" fill="white"/>
</svg>
