<svg width="14" height="14" viewBox="0 0 14 14" fill="none" xmlns="http://www.w3.org/2000/svg">
<g id="ph:export-bold">
<path id="Vector" d="M11.6386 6.18749V11.0625C11.6386 11.3319 11.5316 11.5902 11.3412 11.7806C11.1507 11.9711 10.8924 12.0781 10.623 12.0781H3.31052C3.04116 12.0781 2.78283 11.9711 2.59236 11.7806C2.40189 11.5902 2.29489 11.3319 2.29489 11.0625V6.18749C2.29489 5.91813 2.40189 5.6598 2.59236 5.46934C2.78283 5.27887 3.04116 5.17187 3.31052 5.17187H4.52927C4.69088 5.17187 4.84588 5.23607 4.96016 5.35035C5.07444 5.46463 5.13864 5.61963 5.13864 5.78124C5.13864 5.94286 5.07444 6.09786 4.96016 6.21214C4.84588 6.32642 4.69088 6.39062 4.52927 6.39062H3.51364V10.8594H10.4199V6.39062H9.40427C9.24265 6.39062 9.08765 6.32642 8.97337 6.21214C8.85909 6.09786 8.79489 5.94286 8.79489 5.78124C8.79489 5.61963 8.85909 5.46463 8.97337 5.35035C9.08765 5.23607 9.24265 5.17187 9.40427 5.17187H10.623C10.8924 5.17187 11.1507 5.27887 11.3412 5.46934C11.5316 5.6598 11.6386 5.91813 11.6386 6.18749ZM5.36665 4.18112L6.35739 3.1914V7.40624C6.35739 7.56786 6.42159 7.72286 6.53587 7.83713C6.65015 7.95142 6.80515 8.01562 6.96677 8.01562C7.12838 8.01562 7.28338 7.95142 7.39766 7.83713C7.51194 7.72286 7.57614 7.56786 7.57614 7.40624V3.1914L8.56688 4.18265C8.62357 4.23933 8.69086 4.2843 8.76492 4.31497C8.83898 4.34565 8.91836 4.36144 8.99852 4.36144C9.07869 4.36144 9.15807 4.34565 9.23213 4.31497C9.30619 4.2843 9.37348 4.23933 9.43016 4.18265C9.48685 4.12596 9.53181 4.05867 9.56249 3.98461C9.59317 3.91055 9.60896 3.83117 9.60896 3.75101C9.60896 3.67084 9.59317 3.59147 9.56249 3.51741C9.53181 3.44334 9.48685 3.37605 9.43016 3.31937L7.39891 1.28812C7.3423 1.23131 7.27503 1.18623 7.20096 1.15548C7.12689 1.12472 7.04748 1.10889 6.96727 1.10889C6.88707 1.10889 6.80766 1.12472 6.73359 1.15548C6.65952 1.18623 6.59225 1.23131 6.53563 1.28812L4.50438 3.31937C4.4477 3.37605 4.40274 3.44334 4.37206 3.51741C4.34138 3.59147 4.32559 3.67084 4.32559 3.75101C4.32559 3.9129 4.38991 4.06817 4.50438 4.18265C4.61886 4.29713 4.77413 4.36144 4.93602 4.36144C5.09792 4.36144 5.25319 4.29713 5.36766 4.18265L5.36665 4.18112Z" fill="#D85431"/>
</g>
</svg>
