<svg width="15" height="12" viewBox="0 0 15 12" fill="none" xmlns="http://www.w3.org/2000/svg">
<path id="Vector" d="M8.9641 3.33333H7.9641V6.66667L10.8174 8.36L11.2974 7.55333L8.9641 6.16667V3.33333ZM8.63077 0C7.03947 0 5.51335 0.632141 4.38813 1.75736C3.26291 2.88258 2.63077 4.4087 2.63077 6H0.630768L3.27077 8.68667L5.9641 6H3.9641C3.9641 4.76232 4.45577 3.57534 5.33094 2.70017C6.20611 1.825 7.39309 1.33333 8.63077 1.33333C9.86845 1.33333 11.0554 1.825 11.9306 2.70017C12.8058 3.57534 13.2974 4.76232 13.2974 6C13.2974 7.23768 12.8058 8.42466 11.9306 9.29983C11.0554 10.175 9.86845 10.6667 8.63077 10.6667C7.3441 10.6667 6.17743 10.14 5.33743 9.29333L4.39077 10.24C4.94508 10.8004 5.60555 11.2447 6.33357 11.5469C7.06158 11.8491 7.84253 12.0031 8.63077 12C10.2221 12 11.7482 11.3679 12.8734 10.2426C13.9986 9.11742 14.6308 7.5913 14.6308 6C14.6308 4.4087 13.9986 2.88258 12.8734 1.75736C11.7482 0.632141 10.2221 0 8.63077 0Z" fill="black" fill-opacity="0.6"/>
</svg>
