<svg width="15" height="17" viewBox="0 0 15 17" fill="none" xmlns="http://www.w3.org/2000/svg">
<path d="M0 0V15.4375H9V14.25H1.125V1.1875H6.75V4.75H10.125V5.9375H11.25V3.91875L11.0813 3.74063L7.70625 0.178125L7.5375 0H0ZM7.875 2.01875L9.3375 3.5625H7.875V2.01875ZM2.25 5.9375V7.125H9V5.9375H2.25ZM11.8125 7.125V8.3125C10.8562 8.49063 10.125 9.32188 10.125 10.3906C10.125 11.5781 10.9688 12.4688 12.0938 12.4688H12.6562C13.1063 12.4688 13.5 12.8844 13.5 13.3594C13.5 13.8344 13.1063 14.25 12.6562 14.25H10.6875V15.4375H11.8125V16.625H12.9375V15.4375C13.8938 15.2594 14.625 14.4281 14.625 13.3594C14.625 12.1719 13.7812 11.2812 12.6562 11.2812H12.0938C11.6437 11.2812 11.25 10.8656 11.25 10.3906C11.25 9.91562 11.6437 9.5 12.0938 9.5H14.0625V8.3125H12.9375V7.125H11.8125ZM2.25 8.90625V10.0938H6.1875V8.90625H2.25ZM7.3125 8.90625V10.0938H9V8.90625H7.3125ZM2.25 11.2812V12.4688H6.1875V11.2812H2.25ZM7.3125 11.2812V12.4688H9V11.2812H7.3125Z" fill="#A0AEC0"/>
</svg>
