<svg width="13" height="13" viewBox="0 0 13 13" fill="none" xmlns="http://www.w3.org/2000/svg">
<g id="IONIcon/N/notifications/default" clip-path="url(#clip0_366_792)">
<path id="Vector" d="M10.8144 8.20308C10.7755 8.15547 10.7373 8.10785 10.6998 8.0619C10.1842 7.42835 9.87225 7.04599 9.87225 5.25249C9.87225 4.32396 9.65358 3.56209 9.22257 2.99068C8.90475 2.56856 8.47514 2.24833 7.90889 2.01168C7.90161 2.00756 7.8951 2.00216 7.88968 1.99572C7.686 1.3029 7.12866 0.838867 6.50007 0.838867C5.87147 0.838867 5.31436 1.3029 5.11069 1.99501C5.10526 2.00121 5.09884 2.00644 5.09171 2.01048C3.7703 2.56308 3.12812 3.62327 3.12812 5.25178C3.12812 7.04599 2.81663 7.42835 2.30054 8.06118C2.26304 8.10713 2.22484 8.1538 2.18593 8.20237C2.08543 8.32549 2.02175 8.47528 2.00244 8.63401C1.98313 8.79274 2.00898 8.95377 2.07694 9.09804C2.22155 9.40756 2.52976 9.59969 2.88155 9.59969H10.1212C10.4713 9.59969 10.7774 9.40779 10.9225 9.09971C10.9907 8.9554 11.0168 8.79424 10.9977 8.63533C10.9785 8.47641 10.9149 8.3264 10.8144 8.20308Z" fill="white"/>
<path id="Vector_2" d="M6.49996 11.5052C6.83864 11.505 7.17093 11.4116 7.46159 11.235C7.75225 11.0584 7.99044 10.8052 8.15089 10.5022C8.15845 10.4877 8.16219 10.4714 8.16173 10.455C8.16128 10.4386 8.15665 10.4225 8.1483 10.4085C8.13995 10.3944 8.12816 10.3828 8.11408 10.3747C8.09999 10.3666 8.08409 10.3624 8.06792 10.3624H4.93246C4.91627 10.3624 4.90034 10.3666 4.88622 10.3746C4.87211 10.3827 4.86029 10.3943 4.85191 10.4084C4.84353 10.4225 4.83888 10.4385 4.83842 10.4549C4.83795 10.4714 4.84169 10.4876 4.84926 10.5022C5.00969 10.8051 5.24784 11.0583 5.53846 11.2349C5.82907 11.4115 6.16132 11.5049 6.49996 11.5052Z" fill="white"/>
</g>
<defs>
<clipPath id="clip0_366_792">
<rect width="12" height="12.19" fill="white" transform="translate(0.5 0.0771484)"/>
</clipPath>
</defs>
</svg>
