<svg width="11" height="12" viewBox="0 0 11 12" fill="none" xmlns="http://www.w3.org/2000/svg">
<path id="Vector" d="M5.49954 4.26794C5.1287 4.26794 4.76619 4.37964 4.45785 4.58893C4.14951 4.79822 3.90918 5.09569 3.76727 5.44373C3.62535 5.79176 3.58822 6.17473 3.66057 6.5442C3.73292 6.91368 3.91149 7.25306 4.17372 7.51943C4.43594 7.78581 4.77003 7.96721 5.13375 8.0407C5.49746 8.1142 5.87446 8.07648 6.21707 7.93232C6.55969 7.78816 6.85252 7.54403 7.05855 7.2308C7.26458 6.91758 7.37454 6.54933 7.37454 6.17262C7.37306 5.66793 7.17504 5.18434 6.82373 4.82747C6.47242 4.4706 5.99637 4.26944 5.49954 4.26794ZM9.54767 6.17262C9.54669 6.35059 9.53385 6.52829 9.50923 6.7045L10.6504 7.61208C10.7001 7.65377 10.7336 7.71206 10.7449 7.77652C10.7562 7.84098 10.7445 7.90743 10.712 7.96397L9.63251 9.85723C9.59969 9.91327 9.54847 9.95577 9.48785 9.97724C9.42724 9.99871 9.36111 9.99777 9.3011 9.9746L7.95931 9.42701C7.6799 9.64557 7.37415 9.82695 7.04946 9.96675L6.84884 11.4138C6.83761 11.4786 6.80457 11.5375 6.75537 11.5803C6.70616 11.6231 6.64385 11.6473 6.57907 11.6486H4.42001C4.35641 11.6473 4.29511 11.6242 4.24612 11.583C4.19712 11.5418 4.16333 11.4849 4.15025 11.4217L3.94962 9.9746C3.62404 9.83643 3.31807 9.65475 3.03978 9.43439L1.69798 9.98198C1.638 10.0052 1.57189 10.0061 1.51128 9.98472C1.45067 9.9633 1.39943 9.92085 1.36658 9.86485L0.287045 7.97183C0.254551 7.91528 0.24291 7.84884 0.254202 7.78438C0.265494 7.71991 0.298983 7.66163 0.348686 7.61994L1.48986 6.71236C1.46552 6.53348 1.45268 6.35319 1.45142 6.17262C1.45239 5.99465 1.46524 5.81695 1.48986 5.64074L0.348686 4.73315C0.298983 4.69146 0.265494 4.63318 0.254202 4.56872C0.24291 4.50425 0.254551 4.43781 0.287045 4.38126L1.36658 2.48801C1.39939 2.43196 1.45061 2.38947 1.51123 2.368C1.57185 2.34653 1.63798 2.34746 1.69798 2.37063L3.03978 2.91823C3.31918 2.69967 3.62494 2.51829 3.94962 2.37849L4.15025 0.931407C4.16147 0.866589 4.19451 0.807742 4.24372 0.764925C4.29292 0.722107 4.35524 0.697976 4.42001 0.696655H6.57907C6.64267 0.697913 6.70397 0.721033 6.75297 0.762242C6.80196 0.803451 6.83576 0.860315 6.84884 0.923551L7.04946 2.37063C7.37545 2.50872 7.68183 2.69039 7.96048 2.91085L9.3011 2.36325C9.36108 2.34006 9.42719 2.33909 9.48781 2.36052C9.54842 2.38194 9.59966 2.42439 9.63251 2.48039L10.712 4.37365C10.7445 4.43019 10.7562 4.49663 10.7449 4.5611C10.7336 4.62556 10.7001 4.68385 10.6504 4.72554L9.50923 5.63312C9.53356 5.81191 9.5464 5.99213 9.54767 6.17262Z" fill="white"/>
</svg>
