<svg width="21" height="18" viewBox="0 0 21 18" fill="none" xmlns="http://www.w3.org/2000/svg">
<g id="Vector">
<path d="M3.19662 2.56951H17.2591C17.4234 2.56943 17.5875 2.57985 17.7504 2.60071C17.6952 2.21301 17.562 1.84051 17.3589 1.50567C17.1559 1.17084 16.8871 0.880591 16.5688 0.652439C16.2505 0.424288 15.8893 0.262955 15.507 0.178169C15.1247 0.0933823 14.7291 0.0868982 14.3442 0.159107L2.77914 2.13357H2.76595C2.04001 2.27239 1.39445 2.68312 0.961121 3.28186C1.61397 2.8175 2.39547 2.56847 3.19662 2.56951Z" fill="white"/>
<path d="M17.2593 3.625H3.19678C2.45111 3.62581 1.73621 3.92239 1.20894 4.44966C0.681669 4.97693 0.385092 5.69183 0.384277 6.4375V14.875C0.385092 15.6207 0.681669 16.3356 1.20894 16.8628C1.73621 17.3901 2.45111 17.6867 3.19678 17.6875H17.2593C18.0049 17.6867 18.7198 17.3901 19.2471 16.8628C19.7744 16.3356 20.071 15.6207 20.0718 14.875V6.4375C20.071 5.69183 19.7744 4.97693 19.2471 4.44966C18.7198 3.92239 18.0049 3.62581 17.2593 3.625ZM15.1719 12.0625C14.8937 12.0625 14.6219 11.98 14.3906 11.8255C14.1593 11.671 13.9791 11.4514 13.8727 11.1944C13.7662 10.9374 13.7384 10.6547 13.7926 10.3819C13.8469 10.1091 13.9808 9.85855 14.1775 9.66188C14.3742 9.46521 14.6247 9.33128 14.8975 9.27702C15.1703 9.22276 15.4531 9.25061 15.71 9.35704C15.967 9.46348 16.1866 9.64372 16.3411 9.87498C16.4956 10.1062 16.5781 10.3781 16.5781 10.6562C16.5781 11.0292 16.43 11.3869 16.1662 11.6506C15.9025 11.9143 15.5448 12.0625 15.1719 12.0625Z" fill="white"/>
<path d="M0.406189 9.40234V5.02978C0.406189 4.07749 0.933533 2.48096 2.76385 2.13511C4.31732 1.84375 5.85541 1.84375 5.85541 1.84375C5.85541 1.84375 6.86615 2.54687 6.03119 2.54687C5.19623 2.54687 5.2182 3.62353 6.03119 3.62353C6.84418 3.62353 6.03119 4.65625 6.03119 4.65625L2.75726 8.36963L0.406189 9.40234Z" fill="white"/>
</g>
</svg>
